# xmcd
#
# Track frame offsets:
#	150
#	25469
#	43523
#	61135
#	92234
#	117243
#	141177
#	156326
#
# Disc length: 2347 seconds
#
# Revision: 6
# Processed by: cddbd v1.5.2PL0 Copyright (c) Steve Scherf et al.
# Submitted via: audiograbber 1.83.01
#
DISCID=6a092908
DTITLE=Foghat - The Complete Bearsville Albums Collection [CD 08) - Stone Blue 
DTITLE=[remastered 2016]
DYEAR=1978
DGENRE=Rock
TTITLE0=Stone Blue
TTITLE1=Sweet Home Chicago
TTITLE2=Easy Money
TTITLE3=Midnight Madness
TTITLE4=It Hurts Me Too
TTITLE5=High On Love
TTITLE6=Chevrolet
TTITLE7=Stay With Me
EXTD=
EXTT0=
EXTT1=
EXTT2=
EXTT3=
EXTT4=
EXTT5=
EXTT6=
EXTT7=
PLAYORDER=
